<svg xmlns="http://www.w3.org/2000/svg" xmlns:xlink="http://www.w3.org/1999/xlink" width="105.265" height="90.479" viewBox="0 0 105.265 90.479"><defs><style>.a,.d{fill:none;}.b{fill:#fff;}.c,.l{fill:#4385f4;}.d{stroke:#4385f4;stroke-miterlimit:10;stroke-width:2px;stroke-dasharray:3 3;}.e{fill:#ff7058;}.f{fill:#ffd15c;}.g{clip-path:url(#a);}.h{fill:#f1543f;}.i{fill:#f8b64c;}.j{clip-path:url(#b);}.k{fill:#ffc952;}.l,.m{opacity:0.5;}.n{fill:#2c72c6;}.o{fill:#3d597a;}.p{fill:#ffa829;}.q{isolation:isolate;}</style><clipPath id="a"><path class="a" d="M164.646,131.728a14.887,14.887,0,0,1-1.4.651l-.293.059-.29-.117a14.513,14.513,0,0,1-1.4-.651l.758-1.75h1.808Z" transform="translate(-161.26 -129.92)"/></clipPath><clipPath id="b"><rect class="a" width="18.16" height="0.875"/></clipPath></defs><ellipse class="b" cx="44.324" cy="44.252" rx="44.324" ry="44.252" transform="translate(8.415 0.986)"/><path class="d" d="M77.029,95.041a41.9,41.9,0,1,0-41.959-41.9,41.927,41.927,0,0,0,41.959,41.9" transform="translate(-24.336 -7.861)"/><path class="e" d="M163.7,133.717H158.56l.878-1.867.758-1.75h1.87l.758,1.75Z" transform="translate(-107.659 -88.053)"/><path class="f" d="M157.765,141.219H146.088a1.171,1.171,0,0,0-1.168,1.164v3.789h13.957v-3.789a1.09,1.09,0,0,0-1.112-1.164" transform="translate(-98.456 -95.555)"/><g class="g" transform="translate(51.779 41.988)"><rect class="h" width="6.639" height="5.76" transform="translate(-1.626 -1.626)"/></g><path class="i" d="M146.5,70.41H128.288a.712.712,0,0,0-.7.7.725.725,0,0,0,.7.758H146.5a.712.712,0,0,0,.7-.7.725.725,0,0,0-.7-.758ZM123.38,73.617v2.391a14.014,14.014,0,0,0,28.028,0V73.617Zm25.7,2.391a11.543,11.543,0,0,1-2.687,7.406,11.765,11.765,0,0,1-8.994,4.254,11.573,11.573,0,0,1-8.99-4.254,11.735,11.735,0,0,1-2.687-7.406v-.059h23.3v.059Z" transform="translate(-83.922 -47.778)"/><path class="f" d="M156.685,74.9v6.294a14.2,14.2,0,0,1-9.107,13.235,14.286,14.286,0,0,1-9.107-13.29V74.9Z" transform="translate(-94.104 -50.808)"/><g class="j" transform="translate(44.363 24.092)"><rect class="k" width="21.412" height="4.128" transform="translate(-1.626 -1.626)"/></g><path class="b" d="M156.018,88.4s-.524-.052-.524.41v2.052h3.451v.615a.3.3,0,0,1-.325.309H155.5v2.667h3.773a2.731,2.731,0,0,0,2.3-2.667V88.4Zm5.347-3.324h-6.713a2.926,2.926,0,0,0-2.482,2.6v6.792h2.6v-6.18a.651.651,0,0,1,.5-.638h6.1Z" transform="translate(-103.348 -57.676)"/><path class="a" d="M109.462,116.92l.036-.023A.377.377,0,0,1,109.462,116.92Zm4.694-4.261.026-.023Zm4.267-5.116.016-.026S118.433,107.543,118.423,107.543Zm5.12-10.672Zm1.278-5.53h0s0,0,0,0Zm0-5.952v-.02a.048.048,0,0,1,0,.023Zm-.426-5.53v-.033a.136.136,0,0,1,0,.039Zm-1.278-5.133v.007Zm-1.7-5.529ZM86.85,118.459a29.6,29.6,0,0,1-9.547-1.132c1.109-1.431-.722-2.856-2.475-4.228-1.838-1.366-3.679-2.729-3.679-2.735s2.166,2.222,1.952,4.128a3.438,3.438,0,0,0,.036,1.3q-.751-.342-1.48-.722c1.3-1.229-.172-2.989-1.574-4.661-1.483-1.685-2.979-3.34-2.979-3.347s1.646,2.573,1.093,4.45a3.617,3.617,0,0,0-.2,1.3c-.436-.325-.862-.631-1.275-.976,1.447-1.021.39-3.031-.651-4.915-1.1-1.919-2.241-3.776-2.241-3.78s1.109,2.8.237,4.589A3.754,3.754,0,0,0,63.636,109c-.361-.381-.712-.768-1.047-1.161,1.548-.8.943-2.947.286-4.983-.732-2.069-1.519-4.011-1.509-4.04-.042,0,.585,2.911-.582,4.554a4.148,4.148,0,0,0-.651,1.194q-.42-.651-.81-1.3c1.652-.572,1.441-2.781,1.148-4.879-.355-2.13-.8-4.141-.8-4.163s.094,2.927-1.33,4.391a4.3,4.3,0,0,0-.8,1.125c-.13-.3-.257-.6-.377-.894-.094-.231-.182-.462-.27-.7,1.662-.325,1.812-2.4,1.857-4.385,0-2.023-.12-3.939-.13-3.958s-.325,2.719-1.9,3.9a4.2,4.2,0,0,0-.956.924c-.163-.628-.325-1.256-.439-1.89,1.649-.042,2.1-1.968,2.42-3.812a29.649,29.649,0,0,0,.413-3.679c-.016-.02-.67,2.472-2.306,3.36a4.027,4.027,0,0,0-1.051.755c-.081-.716-.137-1.428-.176-2.144,1.584.189,2.257-1.532,2.8-3.207a33.856,33.856,0,0,0,.839-3.36c-.023,0-.924,2.212-2.573,2.82a3.776,3.776,0,0,0-1.1.572c.016-.651.049-1.272.1-1.9,0-.15.023-.3.036-.446,1.428.4,2.316-1.135,3-2.6a27.377,27.377,0,0,0,1.164-3.041,5.155,5.155,0,0,1-2.716,2.306,3.5,3.5,0,0,0-1.077.381q.2-1.249.478-2.488c1.252.507,2.244-.784,3.025-2.072a28.018,28.018,0,0,0,1.412-2.755s-1.236,1.743-2.761,1.854a3.22,3.22,0,0,0-.976.189q.374-1.3.829-2.57c1.064.537,2.085-.524,2.927-1.626a26.443,26.443,0,0,0,1.626-2.514S60.308,68.29,58.9,68.186a2.875,2.875,0,0,0-.781.036q.517-1.249,1.109-2.5l.068-.163c.881.54,1.9-.325,2.778-1.3A28.159,28.159,0,0,0,63.9,61.937c-.02,0-1.444,1.428-2.706,1.177a2.436,2.436,0,0,0-.8-.042,53.173,53.173,0,0,1,2.927-5.4c-1.226,1.808-2.3,3.571-3.269,5.312a3.37,3.37,0,0,0-.475-.881,2.853,2.853,0,0,1-.27-2.16,7.481,7.481,0,0,1,.41-1.36,15.4,15.4,0,0,0-1.552,3.337c-.5,1.649-.485,3.214.651,3.409-.455.914-.872,1.828-1.259,2.742a3.526,3.526,0,0,0-.569-.7,2.873,2.873,0,0,1-.631-2.127,6.8,6.8,0,0,1,.215-1.4,14.751,14.751,0,0,0-1.138,3.523c-.28,1.672-.068,3.23,1.1,3.357-.3.839-.566,1.675-.813,2.518a3.783,3.783,0,0,0-.651-.559c-1.252-.823-1.005-3.318-.976-3.506a14.364,14.364,0,0,0-.709,3.715c-.068,1.724.348,3.292,1.565,3.3v.02q-.247,1.151-.436,2.319a3.849,3.849,0,0,0-.748-.475c-1.441-.67-1.516-3.272-1.493-3.467a14.754,14.754,0,0,0-.254,3.936c.159,1.8.813,3.386,2.1,3.22-.059.722-.1,1.444-.124,2.173a4.056,4.056,0,0,0-.875-.4c-1.565-.478-2.017-3.054-2.039-3.38a15.421,15.421,0,0,0,.267,4.131c.39,1.857,1.373,3.493,2.687,3.084.039.651.091,1.334.163,2a4.157,4.157,0,0,0-1.021-.325c-1.737-.283-2.57-3.009-2.6-3.272a15.977,15.977,0,0,0,.875,4.329c.686,1.952,1.987,3.555,3.327,2.846.127.605.27,1.213.429,1.815a4.288,4.288,0,0,0-1.19-.208c-1.893-.052-3.188-2.927-3.227-3.093A16.455,16.455,0,0,0,52.362,95.9c1.044,1.981,2.7,3.536,4.007,2.482q.3.8.651,1.587a4.489,4.489,0,0,0-1.33-.062c-2.017.221-3.854-2.693-3.877-2.8A17.194,17.194,0,0,0,54.2,101.59c1.441,1.952,3.477,3.36,4.658,1.987q.4.67.82,1.3a4.576,4.576,0,0,0-1.334.12c-2.013.511-4.365-2.241-4.326-2.277a16.784,16.784,0,0,0,3.145,4.17c1.776,1.743,4.063,2.846,5.016,1.3.325.4.7.79,1.064,1.177a4.554,4.554,0,0,0-1.324.325c-1.834.774-4.482-1.347-4.707-1.6a17.912,17.912,0,0,0,3.848,3.627c2.143,1.473,4.619,2.153,5.315.533.423.342.859.67,1.3.992a4.879,4.879,0,0,0-1.3.511c-1.717,1.018-4.755-.651-5.061-.862a18.391,18.391,0,0,0,4.554,2.97c2.443,1.106,5.1,1.347,5.507-.325.494.257,1,.507,1.509.742A4.99,4.99,0,0,0,71.67,117c-1.558,1.275-4.931.169-5.312,0a18.888,18.888,0,0,0,5.168,2.121c2.69.651,5.442.41,5.572-1.265A29.546,29.546,0,0,0,86.772,119Z" transform="translate(-34.795 -39.182)"/><path class="l" d="M66.692,140.372l-.036-.023A.377.377,0,0,0,66.692,140.372Zm-5-4.063-.026-.026A.162.162,0,0,0,61.693,136.309Zm-4.076-4.8-.02-.023Zm-5.331-10.935Zm-1.025-5.653Zm-.211-5.673v0Zm.517-5.608v-.033a.117.117,0,0,0,0,.036ZM52.748,98.113Zm1.812-5.4Z" transform="translate(-35.119 -62.825)"/><g class="m" transform="translate(15.925 18.433)"><path class="c" d="M87.011,118.094a29.225,29.225,0,0,1-9.468-1.132c1.1-1.425-.716-2.843-2.456-4.209L71.44,110.03c-.042.033,2.147,2.212,1.952,4.111a3.441,3.441,0,0,0,.036,1.3c-.5-.231-.976-.468-1.47-.722,1.278-1.226-.169-2.983-1.561-4.648-1.47-1.682-2.953-3.331-2.957-3.334s1.626,2.563,1.086,4.433a3.662,3.662,0,0,0-.2,1.3c-.433-.325-.855-.631-1.265-.976,1.438-1.015.39-3.018-.651-4.9-1.093-1.909-2.222-3.763-2.222-3.767s1.1,2.788.234,4.573A3.812,3.812,0,0,0,64,108.674q-.537-.572-1.041-1.161c1.538-.79.94-2.927.286-4.964-.725-2.065-1.506-4-1.5-4.03s.582,2.9-.576,4.554a4.131,4.131,0,0,0-.651,1.194q-.416-.651-.8-1.3c1.626-.572,1.428-2.771,1.138-4.853-.355-2.127-.79-4.131-.79-4.154s.094,2.927-1.321,4.378a4.333,4.333,0,0,0-.826,1.086c-.127-.3-.254-.592-.374-.891-.091-.231-.182-.462-.267-.7,1.649-.306,1.8-2.391,1.841-4.368,0-2.02-.117-3.929-.127-3.949s-.325,2.709-1.883,3.9a4.121,4.121,0,0,0-.947.917c-.163-.625-.325-1.249-.436-1.88,1.626-.046,2.078-1.952,2.4-3.8a31.347,31.347,0,0,0,.423-3.672c-.016,0-.651,2.462-2.277,3.347a3.964,3.964,0,0,0-1.041.755q-.117-1.067-.172-2.137c1.568.189,2.235-1.529,2.771-3.2a34,34,0,0,0,.833-3.35c-.02,0-.914,2.205-2.55,2.81a3.734,3.734,0,0,0-1.093.572c.02-.634.052-1.269.1-1.9,0-.15.026-.3.036-.446,1.415.394,2.3-1.132,2.973-2.6a27.471,27.471,0,0,0,1.155-3.031,5.094,5.094,0,0,1-2.7,2.3,3.532,3.532,0,0,0-1.077.371c.13-.829.289-1.656.472-2.479,1.243.5,2.225-.781,3-2.065a29.179,29.179,0,0,0,1.405-2.748s-1.229,1.74-2.742,1.851a3.151,3.151,0,0,0-.953.189q.371-1.282.82-2.563c1.054.537,2.069-.524,2.9-1.626a26.037,26.037,0,0,0,1.607-2.5S60.687,68.094,59.288,68a2.97,2.97,0,0,0-.774.036q.517-1.243,1.1-2.492l.068-.163c.875.54,1.887-.325,2.755-1.3a28.356,28.356,0,0,0,1.805-2.316s-1.431,1.425-2.683,1.174a2.4,2.4,0,0,0-.784-.059A52.269,52.269,0,0,1,63.706,57.5c-1.22,1.789-2.3,3.545-3.253,5.286a3.337,3.337,0,0,0-.472-.878,2.889,2.889,0,0,1-.267-2.157,7.065,7.065,0,0,1,.407-1.353,15.076,15.076,0,0,0-1.539,3.324c-.5,1.646-.481,3.2.651,3.4-.452.911-.865,1.825-1.249,2.732a3.558,3.558,0,0,0-.563-.693,2.856,2.856,0,0,1-.628-2.121,6.542,6.542,0,0,1,.215-1.4,14.591,14.591,0,0,0-1.129,3.513c-.28,1.665-.072,3.22,1.083,3.347q-.439,1.256-.8,2.511a3.616,3.616,0,0,0-.651-.559c-1.256-.8-1.008-3.308-.963-3.5a14.53,14.53,0,0,0-.706,3.7c-.068,1.717.348,3.282,1.555,3.295v.02q-.244,1.148-.429,2.313a3.818,3.818,0,0,0-.751-.459c-1.428-.651-1.5-3.253-1.48-3.458a14.738,14.738,0,0,0-.25,3.923c.156,1.8.807,3.379,2.085,3.21q-.088,1.083-.124,2.166a4.082,4.082,0,0,0-.868-.4c-1.552-.478-2-3.044-2.023-3.366a15.45,15.45,0,0,0,.267,4.1c.384,1.854,1.36,3.487,2.664,3.077q.052,1,.163,1.991a4.011,4.011,0,0,0-1.015-.325c-1.721-.283-2.55-3-2.6-3.253a16.055,16.055,0,0,0,.868,4.316c.683,1.929,1.971,3.545,3.3,2.836.127.6.267,1.21.426,1.812a4.228,4.228,0,0,0-1.181-.208c-1.88-.052-3.162-2.908-3.2-3.083a16.715,16.715,0,0,0,1.568,4.45c1.038,1.974,2.68,3.523,3.975,2.472q.3.8.651,1.584a4.408,4.408,0,0,0-1.321-.062c-2,.221-3.822-2.687-3.841-2.794a17.183,17.183,0,0,0,2.368,4.466c1.431,1.952,3.451,3.353,4.622,1.984q.39.651.813,1.3a4.515,4.515,0,0,0-1.324.12c-1.994.507-4.329-2.235-4.29-2.277a16.719,16.719,0,0,0,3.106,4.128c1.763,1.74,4.03,2.84,4.973,1.3.325.4.693.79,1.057,1.174a4.57,4.57,0,0,0-1.3.309c-1.844.787-4.446-1.314-4.694-1.574a17.863,17.863,0,0,0,3.825,3.627c2.124,1.47,4.58,2.147,5.269.53q.628.514,1.3.976a4.821,4.821,0,0,0-1.3.511c-1.7,1.015-4.716-.634-5.022-.859a18.362,18.362,0,0,0,4.518,2.96c2.423,1.1,5.055,1.343,5.461-.325.488.26.976.5,1.5.738a4.944,4.944,0,0,0-1.207.709c-1.545,1.272-4.879.169-5.269,0a18.67,18.67,0,0,0,5.162,2.127c2.664.651,5.4.41,5.53-1.262a29.192,29.192,0,0,0,9.6,1.145Z" transform="translate(-51.03 -57.5)"/></g><path class="a" d="M168.555,118.154a29.224,29.224,0,0,0,9.468-1.132c-1.1-1.425.719-2.843,2.456-4.209l3.649-2.722c.039.033-2.15,2.212-1.952,4.111a3.441,3.441,0,0,1-.036,1.3c.5-.231.976-.468,1.47-.722-1.278-1.226.169-2.983,1.561-4.648,1.47-1.682,2.957-3.331,2.957-3.334s-1.626,2.563-1.086,4.433a3.579,3.579,0,0,1,.2,1.3c.433-.325.855-.631,1.265-.976-1.438-1.015-.39-3.018.634-4.9,1.093-1.909,2.222-3.763,2.225-3.767s-1.1,2.788-.237,4.573a3.812,3.812,0,0,1,.426,1.269q.537-.572,1.041-1.161c-1.538-.79-.94-2.927-.286-4.964.725-2.065,1.506-4,1.5-4.03s-.582,2.9.576,4.554a4.036,4.036,0,0,1,.634,1.194q.42-.651.8-1.3c-1.626-.572-1.428-2.771-1.138-4.853.355-2.127.79-4.131.79-4.154s-.094,2.927,1.321,4.378a4.332,4.332,0,0,1,.826,1.086c.13-.3.254-.592.374-.891.091-.231.182-.462.267-.7-1.649-.306-1.8-2.391-1.841-4.368,0-2.02.117-3.929.127-3.949s.325,2.709,1.883,3.9a4.121,4.121,0,0,1,.947.917c.163-.625.309-1.249.436-1.88-1.626-.046-2.078-1.952-2.4-3.8-.273-1.867-.426-3.646-.41-3.666s.667,2.462,2.277,3.347a4.04,4.04,0,0,1,1.044.755c.075-.712.133-1.425.169-2.137-1.568.189-2.235-1.529-2.771-3.2a32.953,32.953,0,0,1-.833-3.35c.02,0,.917,2.205,2.55,2.81a3.733,3.733,0,0,1,1.093.572c-.02-.634-.052-1.269-.1-1.9,0-.15-.023-.3-.036-.446-1.415.394-2.3-1.132-2.973-2.6a28.256,28.256,0,0,1-1.155-3.031,5.08,5.08,0,0,0,2.7,2.3,3.531,3.531,0,0,1,1.064.377c-.13-.829-.289-1.656-.472-2.479-1.243.5-2.225-.781-3-2.065a27.855,27.855,0,0,1-1.4-2.748s1.226,1.74,2.739,1.851a3.151,3.151,0,0,1,.953.189q-.371-1.282-.82-2.563c-1.054.537-2.069-.524-2.9-1.626a26.033,26.033,0,0,1-1.607-2.5s1.327,1.561,2.726,1.47a2.97,2.97,0,0,1,.774.036q-.517-1.242-1.1-2.492l-.068-.163c-.875.54-1.887-.325-2.755-1.3a28.358,28.358,0,0,1-1.805-2.316s1.431,1.425,2.683,1.174a2.4,2.4,0,0,1,.794-.042,52.259,52.259,0,0,0-2.927-5.383c1.22,1.789,2.3,3.545,3.253,5.286a3.226,3.226,0,0,1,.468-.878,2.89,2.89,0,0,0,.267-2.157,7.063,7.063,0,0,0-.407-1.353,14.911,14.911,0,0,1,1.538,3.324c.5,1.646.481,3.2-.651,3.4.452.911.865,1.825,1.249,2.732a3.559,3.559,0,0,1,.563-.693,2.842,2.842,0,0,0,.628-2.121,6.542,6.542,0,0,0-.215-1.4,14.591,14.591,0,0,1,1.129,3.513c.28,1.665.072,3.22-1.083,3.347q.439,1.256.8,2.511a3.617,3.617,0,0,1,.651-.559c1.243-.82,1-3.308.95-3.5a14.528,14.528,0,0,1,.706,3.7c.068,1.717-.348,3.282-1.555,3.295v.02q.244,1.148.429,2.313a3.82,3.82,0,0,1,.745-.475c1.428-.651,1.5-3.253,1.48-3.458a14.737,14.737,0,0,1,.25,3.923c-.156,1.8-.807,3.38-2.085,3.21q.088,1.083.127,2.166a4.05,4.05,0,0,1,.865-.4c1.552-.478,2-3.044,2.023-3.366a15.448,15.448,0,0,1-.267,4.115c-.384,1.854-1.36,3.487-2.664,3.077q-.055,1-.163,1.991a4.011,4.011,0,0,1,1.015-.325c1.721-.283,2.55-3,2.6-3.253a16.055,16.055,0,0,1-.868,4.316c-.683,1.929-1.971,3.545-3.3,2.836-.127.6-.267,1.21-.426,1.812a4.228,4.228,0,0,1,1.181-.208c1.88-.052,3.162-2.908,3.2-3.084a16.715,16.715,0,0,1-1.568,4.45c-1.038,1.974-2.68,3.523-3.975,2.472q-.3.8-.651,1.584a4.407,4.407,0,0,1,1.321-.062c2,.221,3.822-2.687,3.841-2.794a17.183,17.183,0,0,1-2.368,4.466c-1.431,1.952-3.451,3.353-4.622,1.984q-.39.651-.813,1.3a4.515,4.515,0,0,1,1.324.12c1.994.507,4.329-2.235,4.29-2.277a16.717,16.717,0,0,1-3.106,4.128c-1.763,1.74-4.03,2.84-4.973,1.3-.325.4-.693.79-1.057,1.174a4.57,4.57,0,0,1,1.3.309c1.818.751,4.443-1.35,4.681-1.6a17.864,17.864,0,0,1-3.819,3.617c-2.124,1.47-4.58,2.147-5.269.53q-.628.514-1.3.976a4.82,4.82,0,0,1,1.285.511c1.7,1.015,4.716-.634,5.022-.859a18.361,18.361,0,0,1-4.518,2.96c-2.423,1.1-5.055,1.343-5.461-.325-.488.26-.976.5-1.5.738a4.945,4.945,0,0,1,1.207.709c1.545,1.272,4.879.169,5.269,0a18.67,18.67,0,0,1-5.142,2.134c-2.664.651-5.393.41-5.53-1.262a29.192,29.192,0,0,1-9.6,1.145l-.068-.537Z" transform="translate(-114.359 -39.128)"/><path d="M153.98,215.021a.6.6,0,0,0,.12-.381v-.3a.592.592,0,0,0-.124-.381.39.39,0,0,0-.325-.13.4.4,0,0,0-.325.13.592.592,0,0,0-.12.381v.3a.585.585,0,0,0,.124.381.48.48,0,0,0,.651,0Zm-1.028.289a.914.914,0,0,1-.27-.651v-.342a.908.908,0,0,1,.273-.651,1.177,1.177,0,0,1,1.408,0,.907.907,0,0,1,.273.651v.342a.9.9,0,0,1-.27.651A1.187,1.187,0,0,1,152.952,215.311Zm-2.231,0a.9.9,0,0,1-.27-.651v-.312a.908.908,0,0,1,.27-.651.976.976,0,0,1,.686-.237,1.152,1.152,0,0,1,.52.107.839.839,0,0,1,.325.267.618.618,0,0,1,.111.3.081.081,0,0,1-.026.068.1.1,0,0,1-.068.026h-.345a.11.11,0,0,1-.065,0,.188.188,0,0,1-.039-.065.458.458,0,0,0-.153-.215.413.413,0,0,0-.244-.065.38.38,0,0,0-.325.124.6.6,0,0,0-.12.384v.273q.026.507.429.507a.442.442,0,0,0,.247-.065.455.455,0,0,0,.15-.218.156.156,0,0,1,.039-.062.091.091,0,0,1,.065-.019h.345a.1.1,0,0,1,.068.026.081.081,0,0,1,.026.068.612.612,0,0,1-.107.293.813.813,0,0,1-.325.273,1.125,1.125,0,0,1-.527.114.976.976,0,0,1-.66-.267Zm-1.194.172a.091.091,0,0,1-.026-.065v-.4a.088.088,0,0,1,.094-.094h.394a.091.091,0,0,1,.065.026.094.094,0,0,1,.029.068v.394a.091.091,0,0,1-.026.065.085.085,0,0,1-.068.029H149.6a.094.094,0,0,1-.078-.02Zm-1.805-.023a.794.794,0,0,1-.3-.208.351.351,0,0,1-.094-.2.078.078,0,0,1,.023-.062.094.094,0,0,1,.062-.026h.325a.072.072,0,0,1,.055.033l.088.075a.524.524,0,0,0,.351.124.488.488,0,0,0,.254-.059.2.2,0,0,0,.1-.176.182.182,0,0,0-.046-.127.394.394,0,0,0-.159-.088,2.984,2.984,0,0,0-.348-.094,1,1,0,0,1-.488-.215.481.481,0,0,1-.159-.381.53.53,0,0,1,.094-.3.68.68,0,0,1,.28-.224,1.022,1.022,0,0,1,.442-.088,1.138,1.138,0,0,1,.455.081.826.826,0,0,1,.293.2.341.341,0,0,1,.1.208.078.078,0,0,1-.023.059.081.081,0,0,1-.062.026h-.293a.075.075,0,0,1-.065-.029.918.918,0,0,1-.088-.075.583.583,0,0,0-.137-.081.42.42,0,0,0-.179-.033.325.325,0,0,0-.221.062.2.2,0,0,0-.078.166.179.179,0,0,0,.036.117.4.4,0,0,0,.15.088,2.212,2.212,0,0,0,.325.081q.7.137.7.615a.53.53,0,0,1-.241.449,1.142,1.142,0,0,1-.67.172,1.21,1.21,0,0,1-.494-.085Zm-3.776.023a.091.091,0,0,1-.026-.065v-1.844a.1.1,0,0,1,.026-.068.1.1,0,0,1,.068-.023h.306a.085.085,0,0,1,.094.091v.146a.686.686,0,0,1,.566-.263.615.615,0,0,1,.605.345.709.709,0,0,1,.267-.25.732.732,0,0,1,.371-.094.686.686,0,0,1,.524.218.911.911,0,0,1,.2.634v1.122a.091.091,0,0,1-.026.065.085.085,0,0,1-.068.029h-.325a.094.094,0,0,1-.068-.029.091.091,0,0,1-.026-.065v-1.09a.507.507,0,0,0-.1-.355.348.348,0,0,0-.27-.111.354.354,0,0,0-.26.111.5.5,0,0,0-.107.355v1.09a.091.091,0,0,1-.026.065.084.084,0,0,1-.068.029h-.325a.1.1,0,0,1-.094-.094v-1.09a.5.5,0,0,0-.1-.355.364.364,0,0,0-.27-.111.358.358,0,0,0-.26.111.5.5,0,0,0-.107.355v1.09a.088.088,0,0,1-.023.065.094.094,0,0,1-.068.029h-.325a.094.094,0,0,1-.085-.036Zm-1.626,0a.091.091,0,0,1-.026-.065V213.58a.107.107,0,0,1,.026-.072.091.091,0,0,1,.068-.026h.325a.094.094,0,0,1,.072.026.107.107,0,0,1,.026.072v.159a.65.65,0,0,1,.563-.257h.163a.085.085,0,0,1,.094.091v.286a.078.078,0,0,1-.026.065.085.085,0,0,1-.068.029h-.306a.394.394,0,0,0-.29.1.387.387,0,0,0-.107.289v1.07a.078.078,0,0,1-.026.065.088.088,0,0,1-.065.029h-.374a.094.094,0,0,1-.068-.023Zm-2.186,0a.091.091,0,0,1-.026-.065V213.9h-.325a.088.088,0,0,1-.094-.094v-.231a.1.1,0,0,1,.026-.065.091.091,0,0,1,.068-.026h.325v-.156a.686.686,0,0,1,.192-.53.823.823,0,0,1,.576-.172h.81a.091.091,0,0,1,.068.023.1.1,0,0,1,.026.068v.231a.094.094,0,0,1-.029.068.091.091,0,0,1-.065.026h-.79a.273.273,0,0,0-.215.075.371.371,0,0,0-.062.231v.137h1.067a.091.091,0,0,1,.068.023.1.1,0,0,1,.026.068v1.844a.091.091,0,0,1-.026.065.084.084,0,0,1-.068.029h-.325a.1.1,0,0,1-.094-.094V213.9h-.651v1.519a.078.078,0,0,1-.026.065.084.084,0,0,1-.068.029H140.2a.094.094,0,0,1-.081-.023Zm-1.441-.491a.615.615,0,0,0,.117-.351v-.3a.53.53,0,0,0-.12-.325.4.4,0,0,0-.325-.137c-.277,0-.426.172-.446.517v.234c.02.325.169.514.446.514A.39.39,0,0,0,138.693,214.992Zm-1.083.325a1.074,1.074,0,0,1-.231-.673v-.273a1.07,1.07,0,0,1,.228-.67.837.837,0,0,1,1.2,0v-.868a.094.094,0,0,1,.029-.068.088.088,0,0,1,.065-.023h.325a.085.085,0,0,1,.094.091v2.6a.078.078,0,0,1-.026.065.085.085,0,0,1-.068.029H138.9a.1.1,0,0,1-.094-.094v-.146a.836.836,0,0,1-1.223.026Zm-1.246-.27a.6.6,0,0,0,.12-.381v-.3a.608.608,0,0,0-.12-.381.394.394,0,0,0-.325-.13.4.4,0,0,0-.325.13.608.608,0,0,0-.12.381v.3a.6.6,0,0,0,.12.381.407.407,0,0,0,.325.127.394.394,0,0,0,.338-.153Zm-1.028.289a.914.914,0,0,1-.27-.651v-.342a.908.908,0,0,1,.273-.651,1.008,1.008,0,0,1,.709-.234,1,1,0,0,1,.7.234.908.908,0,0,1,.273.651v.342a.914.914,0,0,1-.27.651,1.19,1.19,0,0,1-1.418,0Zm-1.285-.289a.582.582,0,0,0,.117-.381,1.291,1.291,0,0,0,0-.15,1.331,1.331,0,0,0,0-.153.592.592,0,0,0-.12-.381.39.39,0,0,0-.325-.13.4.4,0,0,0-.325.13.592.592,0,0,0-.124.381v.3a.586.586,0,0,0,.124.381.465.465,0,0,0,.651,0Zm-1.028.289a.9.9,0,0,1-.27-.651v-.341a.907.907,0,0,1,.273-.651,1.177,1.177,0,0,1,1.408,0,.908.908,0,0,1,.273.651v.342a.914.914,0,0,1-.27.651A1.187,1.187,0,0,1,133.023,215.337Zm-1.366-.377a.618.618,0,0,0,.12-.342,1.15,1.15,0,0,0,0-.127,1.091,1.091,0,0,0,0-.124.628.628,0,0,0-.12-.345.4.4,0,0,0-.325-.14c-.283,0-.429.172-.446.517v.091c0,.407.15.612.449.612a.394.394,0,0,0,.335-.156Zm-.875,1.3a.755.755,0,0,1-.306-.263.514.514,0,0,1-.088-.254.085.085,0,0,1,.026-.065.094.094,0,0,1,.065-.023h.348a.1.1,0,0,1,.062.016.124.124,0,0,1,.039.065.449.449,0,0,0,.13.172.41.41,0,0,0,.267.072.387.387,0,0,0,.452-.462v-.267a.859.859,0,0,1-1.21,0,1.07,1.07,0,0,1-.218-.67v-.211a1.093,1.093,0,0,1,.221-.67.738.738,0,0,1,.608-.254.8.8,0,0,1,.364.078.735.735,0,0,1,.257.208v-.15a.094.094,0,0,1,.029-.072.091.091,0,0,1,.068-.026h.325a.091.091,0,0,1,.068.026.107.107,0,0,1,.026.072v1.88a.885.885,0,0,1-.241.67,1,1,0,0,1-.729.241,1.167,1.167,0,0,1-.553-.114Z" transform="translate(-88.625 -143.733)"/><path class="n" d="M107.335,166.2H95.493v18.091h11.843l-3.806-8.5ZM2.07,166.2H13.913v18.091H2.07l3.8-8.5Z" transform="translate(-2.07 -112.411)"/><path class="o" d="M113.879,147.11l-5.988,6.18v18.091l5.988-5.949Zm-93.439,0,6,6.443V171.4l-6-5.985Z" transform="translate(-14.465 -99.53)"/><path class="c" d="M20.03,165.089h93.559l-.01-18.319H20.03Z" transform="translate(-14.188 -99.301)"/><path class="l" d="M167.35,118.486a29.6,29.6,0,0,0,9.547-1.132c-1.109-1.431.722-2.856,2.475-4.228,1.838-1.366,3.679-2.729,3.679-2.735s-2.166,2.222-1.952,4.128a3.439,3.439,0,0,1-.036,1.3q.751-.342,1.48-.722c-1.3-1.23.172-2.989,1.574-4.661,1.483-1.685,2.979-3.34,2.979-3.347s-1.646,2.573-1.093,4.45a3.617,3.617,0,0,1,.2,1.3c.436-.325.862-.631,1.275-.976-1.451-1.021-.39-3.031.651-4.915,1.1-1.919,2.241-3.776,2.241-3.78s-1.109,2.8-.237,4.589a3.826,3.826,0,0,1,.429,1.269c.361-.381.712-.768,1.047-1.161-1.548-.8-.943-2.947-.286-4.983.732-2.069,1.519-4.011,1.509-4.04.042,0-.585,2.911.582,4.554a4.147,4.147,0,0,1,.651,1.194q.42-.651.807-1.3c-1.652-.572-1.438-2.781-1.145-4.879.355-2.13.794-4.141.794-4.163s-.091,2.927,1.334,4.391a4.3,4.3,0,0,1,.833,1.09c.13-.3.257-.6.377-.894.094-.231.182-.462.27-.7-1.662-.325-1.812-2.4-1.857-4.385,0-2.023.12-3.939.13-3.958s.325,2.719,1.9,3.9a4.2,4.2,0,0,1,.956.924c.163-.628.309-1.256.439-1.89-1.649-.042-2.1-1.968-2.42-3.812a29.655,29.655,0,0,1-.413-3.679c.016-.02.67,2.472,2.306,3.36a4.027,4.027,0,0,1,1.051.755c.078-.716.137-1.428.176-2.144-1.584.189-2.257-1.532-2.8-3.207a33.843,33.843,0,0,1-.839-3.36c.023,0,.924,2.212,2.573,2.82a3.777,3.777,0,0,1,1.1.572c-.02-.651-.049-1.272-.1-1.9,0-.15-.023-.3-.036-.446-1.428.4-2.316-1.135-3-2.6a27.381,27.381,0,0,1-1.164-3.041,5.155,5.155,0,0,0,2.716,2.306,3.5,3.5,0,0,1,1.077.381c-.137-.833-.293-1.662-.478-2.488-1.252.507-2.244-.784-3.025-2.072a29.352,29.352,0,0,1-1.415-2.755c.016,0,1.239,1.743,2.765,1.854a3.221,3.221,0,0,1,.976.189q-.377-1.3-.829-2.57c-1.064.537-2.085-.524-2.927-1.626a26.447,26.447,0,0,1-1.626-2.514c.016,0,1.343,1.568,2.749,1.477a2.876,2.876,0,0,1,.781.036q-.517-1.249-1.109-2.5l-.068-.163c-.881.54-1.9-.325-2.778-1.3a28.155,28.155,0,0,1-1.821-2.322c.019,0,1.444,1.428,2.706,1.177a2.437,2.437,0,0,1,.8-.042,53.821,53.821,0,0,0-2.944-5.4c1.226,1.8,2.319,3.578,3.285,5.305a3.369,3.369,0,0,1,.475-.881,2.889,2.889,0,0,0,.27-2.163,7.8,7.8,0,0,0-.41-1.36,15.4,15.4,0,0,1,1.551,3.337c.5,1.649.485,3.214-.65,3.409.455.914.872,1.828,1.259,2.742a3.523,3.523,0,0,1,.569-.7,2.873,2.873,0,0,0,.631-2.127,6.8,6.8,0,0,0-.215-1.4,14.749,14.749,0,0,1,1.138,3.523c.28,1.672.068,3.23-1.1,3.357.3.839.566,1.675.813,2.518a3.663,3.663,0,0,1,.651-.559c1.252-.823,1.005-3.318.976-3.506a14.364,14.364,0,0,1,.709,3.715c.068,1.724-.348,3.292-1.565,3.3v.02q.247,1.151.436,2.319a3.848,3.848,0,0,1,.748-.475c1.441-.67,1.516-3.272,1.493-3.467a14.754,14.754,0,0,1,.254,3.936c-.159,1.8-.813,3.386-2.1,3.22.059.722.1,1.444.124,2.173a4.056,4.056,0,0,1,.875-.4c1.564-.478,2.013-3.054,2.039-3.379a15.421,15.421,0,0,1-.267,4.131c-.39,1.857-1.373,3.493-2.687,3.083-.039.651-.091,1.334-.166,2a4.228,4.228,0,0,1,1.025-.325c1.737-.283,2.57-3.009,2.6-3.272a15.976,15.976,0,0,1-.875,4.329c-.686,1.952-1.987,3.555-3.327,2.846-.127.605-.27,1.213-.429,1.815a4.287,4.287,0,0,1,1.19-.208c1.893-.052,3.188-2.927,3.227-3.093a16.39,16.39,0,0,1-1.581,4.463c-1.041,1.981-2.7,3.536-4,2.482q-.3.8-.651,1.587a4.482,4.482,0,0,1,1.33-.062c2.017.221,3.854-2.693,3.874-2.8a17.021,17.021,0,0,1-2.387,4.482c-1.441,1.952-3.477,3.36-4.658,1.987q-.4.67-.82,1.3a4.577,4.577,0,0,1,1.334.12c2.01.511,4.365-2.241,4.326-2.277a16.784,16.784,0,0,1-3.171,4.167c-1.776,1.743-4.063,2.846-5.016,1.3-.342.4-.7.79-1.064,1.177a4.554,4.554,0,0,1,1.324.325c1.834.751,4.479-1.356,4.72-1.607a17.912,17.912,0,0,1-3.848,3.627c-2.143,1.473-4.619,2.153-5.315.533-.423.342-.859.67-1.3.992a4.879,4.879,0,0,1,1.3.511c1.717,1.018,4.755-.651,5.061-.862a18.39,18.39,0,0,1-4.554,2.97c-2.443,1.106-5.1,1.347-5.507-.325-.494.257-1,.507-1.509.742a4.989,4.989,0,0,1,1.2.7c1.558,1.275,4.931.169,5.312,0a18.865,18.865,0,0,1-5.185,2.14c-2.687.651-5.438.41-5.569-1.265a29.547,29.547,0,0,1-9.673,1.148Z" transform="translate(-113.59 -39.209)"/><path class="p" d="M152.8,17.81l1.919,3.884,4.29.621L155.9,25.353l.735,4.264L152.8,27.6l-3.835,2.013.732-4.264-3.106-3.022,4.29-.621Z" transform="translate(-99.583 -12.287)"/><path class="i" d="M119,36.249l-1.148-2.329L116.7,36.249l-2.576.374,1.864,1.812-.439,2.56,2.3-1.21,2.3,1.21-.439-2.56,1.864-1.812Z" transform="translate(-77.674 -23.157)"/><path class="i" d="M201.789,36.623l-2.576-.374-1.148-2.329-1.151,2.329-2.573.374,1.861,1.812-.439,2.56,2.3-1.21,2.3,1.21-.439-2.56Z" transform="translate(-131.801 -23.157)"/><path class="f" d="M103.374,56.849l-.69-1.4-.69,1.4-1.545.224,1.116,1.086-.263,1.535,1.382-.722,1.379.722-.263-1.535,1.119-1.086Z" transform="translate(-68.45 -37.684)"/><path class="f" d="M221.639,57.073l-1.545-.224-.69-1.4-.69,1.4-1.545.224,1.119,1.086-.263,1.535,1.379-.722,1.382.722-.263-1.535Z" transform="translate(-147.206 -37.684)"/><g class="q" transform="translate(19.721 51.535)"><path class="b" d="M63.838,163.377v-3.223H62.7v-.673h3.1v.673H64.655v3.223Z" transform="translate(-62.7 -159.412)"/><path class="b" d="M76.327,161.29a1.883,1.883,0,1,1-1.877-2.02A1.814,1.814,0,0,1,76.327,161.29Zm-2.927,0c0,.813.41,1.33,1.051,1.33s1.044-.517,1.044-1.33-.41-1.337-1.044-1.337S73.4,160.483,73.4,161.29Z" transform="translate(-69.36 -159.27)"/><path class="b" d="M87.356,159.466a1.272,1.272,0,0,1,1.35,1.334,1.3,1.3,0,0,1-1.389,1.334h-.771v1.23H85.73v-3.9Zm-.81,2.03h.592a.693.693,0,1,0,0-1.382h-.592Z" transform="translate(-78.239 -159.398)"/><path class="b" d="M101.172,163.363H100.4l-1.031-3.9h.855l.611,2.823h.023l.729-2.823h.69l.729,2.823h.023l.615-2.823h.846l-1.034,3.9h-.771l-.738-2.661h-.026Z" transform="translate(-87.443 -159.398)"/><path class="b" d="M119,163.363H116.42v-3.9H119v.673h-1.766v.94H118.9v.624h-1.665v.976H119Z" transform="translate(-98.947 -159.398)"/><path class="b" d="M126.17,163.363v-3.9h1.717c.732,0,1.19.377,1.19.976a.859.859,0,0,1-.729.846v.02a.95.95,0,0,1,.917.943c0,.686-.517,1.116-1.347,1.116Zm.813-2.277h.611c.436,0,.683-.192.683-.52s-.218-.491-.6-.491h-.7Zm.729,1.669c.468,0,.722-.2.722-.572s-.26-.559-.742-.559h-.709v1.132Z" transform="translate(-105.525 -159.398)"/><path class="b" d="M142.269,159.439a1.944,1.944,0,0,1,0,3.884h-1.5v-3.9Zm-.686,3.22h.589c.732,0,1.125-.442,1.125-1.285s-.407-1.262-1.125-1.262h-.589Z" transform="translate(-115.377 -159.371)"/><path class="b" d="M155.283,163.363H152.7v-3.9h2.583v.673h-1.766v.94h1.665v.624h-1.665v.976h1.766Z" transform="translate(-123.426 -159.398)"/><path class="b" d="M163.011,163.363l-1.3-3.9h.911l.891,3.057h.02l.891-3.057h.888l-1.3,3.9Z" transform="translate(-129.506 -159.398)"/><path class="b" d="M176.573,163.363H174v-3.9h2.579v.673h-1.763v.94h1.665v.624h-1.665v.976h1.763Z" transform="translate(-137.798 -159.398)"/><path class="b" d="M186.241,163.363H183.72v-3.9h.816v3.22h1.7Z" transform="translate(-144.356 -159.398)"/><path class="b" d="M195.84,161.29a1.885,1.885,0,1,1-1.88-2.02A1.816,1.816,0,0,1,195.84,161.29Zm-2.927,0c0,.813.407,1.33,1.047,1.33S195,162.1,195,161.29s-.407-1.337-1.044-1.337S192.913,160.483,192.913,161.29Z" transform="translate(-149.997 -159.27)"/><path class="b" d="M206.876,159.466a1.275,1.275,0,0,1,1.35,1.334,1.3,1.3,0,0,1-1.392,1.334h-.771v1.23h-.813v-3.9Zm-.813,2.03h.592a.693.693,0,1,0,0-1.382h-.6Z" transform="translate(-158.884 -159.398)"/><path class="b" d="M220,163.363h-.729v-2.631h-.02l-1.06,2.6h-.511l-1.06-2.6h-.02v2.631h-.729v-3.9h.947l1.106,2.762h.023l1.106-2.762H220Z" transform="translate(-166.049 -159.398)"/><path class="b" d="M233.129,163.363H230.55v-3.9h2.579v.673h-1.763v.94h1.665v.624h-1.665v.976h1.763Z" transform="translate(-175.954 -159.398)"/><path class="b" d="M240.29,163.363v-3.9h.68L242.791,162h.023V159.46h.781v3.9h-.677l-1.821-2.55h-.026v2.55Z" transform="translate(-182.526 -159.398)"/><path class="b" d="M252.978,163.377v-3.223H251.84v-.673h3.1v.673h-1.142v3.223Z" transform="translate(-190.319 -159.412)"/><path class="b" d="M122.34,181.681a1.8,1.8,0,0,1,1.844-2.017,1.626,1.626,0,0,1,1.714,1.467H125.1a.907.907,0,0,0-.92-.79c-.615,0-1.012.514-1.012,1.337s.39,1.347,1.008,1.347a.875.875,0,0,0,.917-.745h.794a1.582,1.582,0,0,1-1.714,1.421A1.8,1.8,0,0,1,122.34,181.681Z" transform="translate(-102.941 -173.029)"/><path class="b" d="M138.2,181.69a1.885,1.885,0,1,1-1.88-2.02A1.813,1.813,0,0,1,138.2,181.69Zm-2.927,0c0,.813.407,1.33,1.047,1.33s1.044-.517,1.044-1.33-.407-1.337-1.044-1.337S135.273,180.87,135.273,181.69Z" transform="translate(-111.105 -173.035)"/><path class="b" d="M151.744,183.763h-.725v-2.628H151l-1.057,2.6h-.514l-1.057-2.6h-.023v2.628h-.725v-3.9h.943l1.109,2.762h.023l1.109-2.762h.943Z" transform="translate(-119.998 -173.163)"/><path class="b" d="M163.923,179.867a1.272,1.272,0,0,1,1.35,1.334,1.3,1.3,0,0,1-1.389,1.334h-.771v1.229H162.3v-3.9Zm-.81,2.03h.592a.693.693,0,1,0,0-1.382h-.592Z" transform="translate(-129.904 -173.163)"/><path class="b" d="M173.514,182.867h-1.369l-.3.947H171l1.35-3.9h.96l1.356,3.9H173.8Zm-1.194-.608h1.018l-.5-1.6h-.02Z" transform="translate(-135.774 -173.197)"/><path class="b" d="M183.53,183.763v-3.9h.68l1.821,2.537h.02V179.86h.781v3.9h-.673l-1.825-2.557h-.023v2.55Z" transform="translate(-144.228 -173.163)"/><path class="b" d="M196.266,183.777v-1.454l-1.356-2.443h.888l.872,1.662h.02l.875-1.662h.875l-1.36,2.443v1.454Z" transform="translate(-151.907 -173.176)"/></g></svg>
