<svg xmlns="http://www.w3.org/2000/svg" width="205.994" height="33.001" viewBox="0 0 205.994 33.001">
  <g id="Group_4532" data-name="Group 4532" transform="translate(-204 -1041)">
    <path id="Op_component_1" data-name="Op component 1" d="M86.562,63.818A14.307,14.307,0,1,0,74.659,41.5q-.389.57-.722,1.18a14.247,14.247,0,0,0,0,13.64A14.38,14.38,0,0,0,86.562,63.818ZM77.9,42.85l6.9-4.109A3.212,3.212,0,0,1,88,38.694l7.018,3.9a3.2,3.2,0,0,1,1.645,2.746l.122,8.012a3.2,3.2,0,0,1-1.562,2.794l-6.9,4.109a3.217,3.217,0,0,1-3.208.048L78.1,56.4a3.2,3.2,0,0,1-1.645-2.746l-.121-8.011A3.2,3.2,0,0,1,77.9,42.85Z" transform="translate(133.983 1008.002)" fill="#23354d"/>
    <path id="Op_component_2" data-name="Op component 2" d="M86.562,33a16.5,16.5,0,1,0,16.546,16.5A16.542,16.542,0,0,0,86.562,33Zm0,31.911A15.411,15.411,0,1,1,102.014,49.5,15.432,15.432,0,0,1,86.562,64.909Z" transform="translate(133.983 1008.002)" fill="#23354d"/>
    <path id="Op_component_3" data-name="Op component 3" d="M121.316,42.334l-1.534,1.61a5.474,5.474,0,0,0-3.74-1.886,2.8,2.8,0,0,0-1.987.779,2.419,2.419,0,0,0-.83,1.817,2.721,2.721,0,0,0,.683,1.747,9.592,9.592,0,0,0,2.867,1.991,10.707,10.707,0,0,1,3.619,2.7,4.975,4.975,0,0,1,.939,2.959,5.349,5.349,0,0,1-1.6,3.929,5.433,5.433,0,0,1-4.008,1.61,6.933,6.933,0,0,1-3.062-.708,6.682,6.682,0,0,1-2.413-1.957l1.5-1.73a5.2,5.2,0,0,0,3.877,2.093,3.45,3.45,0,0,0,2.44-.935,2.9,2.9,0,0,0,1.008-2.2A2.843,2.843,0,0,0,118.4,52.3a10.725,10.725,0,0,0-3-2.007,9.611,9.611,0,0,1-3.413-2.6,4.931,4.931,0,0,1-.9-2.924,4.79,4.79,0,0,1,1.442-3.564,4.973,4.973,0,0,1,3.642-1.419A7.5,7.5,0,0,1,121.316,42.334Z" transform="translate(133.983 1008.002)" fill="#23354d"/>
    <path id="Op_component_4" data-name="Op component 4" d="M128.364,40.276h2.385v3.46A9.612,9.612,0,0,1,134,40.778a8.5,8.5,0,0,1,4.1-.986,9.081,9.081,0,0,1,6.755,2.889,9.629,9.629,0,0,1,2.809,6.956,9.81,9.81,0,0,1-2.781,7.051A9.257,9.257,0,0,1,134.1,58.652a10.276,10.276,0,0,1-3.352-2.785V65.988h-2.385Zm9.539,1.851a6.947,6.947,0,0,0-5.209,2.2,7.57,7.57,0,0,0-2.116,5.462,7.847,7.847,0,0,0,.943,3.853,6.935,6.935,0,0,0,2.7,2.714,7.377,7.377,0,0,0,3.712,1,6.91,6.91,0,0,0,3.611-1.012,7.371,7.371,0,0,0,2.695-2.825,7.747,7.747,0,0,0,.007-7.605,7.233,7.233,0,0,0-2.676-2.792A7.086,7.086,0,0,0,137.9,42.127Z" transform="translate(133.983 1008.002)" fill="#23354d"/>
    <path id="Op_component_5" data-name="Op component 5" d="M170.517,52.855l2.011,1.073a11.122,11.122,0,0,1-2.284,3.183,9.019,9.019,0,0,1-2.916,1.843,10.038,10.038,0,0,1-3.665.631,8.792,8.792,0,0,1-7.091-3.02,10.278,10.278,0,0,1-2.558-6.827,10.173,10.173,0,0,1,2.165-6.385,8.806,8.806,0,0,1,7.348-3.564,9.09,9.09,0,0,1,7.569,3.652,10.3,10.3,0,0,1,2.046,6.436H156.467a7.726,7.726,0,0,0,2.063,5.378,6.533,6.533,0,0,0,4.928,2.1,7.813,7.813,0,0,0,2.755-.5,7.216,7.216,0,0,0,2.277-1.328A11.218,11.218,0,0,0,170.517,52.855Zm0-5.07a8.049,8.049,0,0,0-1.388-3.1,6.6,6.6,0,0,0-2.412-1.87,7.313,7.313,0,0,0-3.156-.709,6.731,6.731,0,0,0-4.689,1.783,8.065,8.065,0,0,0-2.167,3.893Z" transform="translate(133.983 1008.002)" fill="#23354d"/>
    <path id="Op_component_6" data-name="Op component 6" d="M198.365,44.186l-1.89,1.193a7.881,7.881,0,0,0-6.687-3.305,7.67,7.67,0,0,0-5.622,2.214,7.274,7.274,0,0,0-2.236,5.375,7.717,7.717,0,0,0,1.029,3.871,7.269,7.269,0,0,0,2.823,2.818,8.444,8.444,0,0,0,10.694-2.3l1.89,1.265a8.955,8.955,0,0,1-3.569,3.152,11.236,11.236,0,0,1-5.1,1.122,9.99,9.99,0,0,1-7.291-2.839,9.3,9.3,0,0,1-2.894-6.9,9.968,9.968,0,0,1,1.354-5.077,9.589,9.589,0,0,1,3.722-3.66,10.724,10.724,0,0,1,5.3-1.315,11.149,11.149,0,0,1,3.549.571,9.8,9.8,0,0,1,2.9,1.488A8.028,8.028,0,0,1,198.365,44.186Z" transform="translate(133.983 1008.002)" fill="#23354d"/>
    <path id="Op_component_7" data-name="Op component 7" d="M205.891,59.1V33.008h2.384v10.5a10.127,10.127,0,0,1,3.352-2.8,9.285,9.285,0,0,1,10.779,1.974,9.78,9.78,0,0,1,2.783,7.033,9.647,9.647,0,0,1-2.807,6.973,9.083,9.083,0,0,1-6.756,2.89,8.538,8.538,0,0,1-4.1-.987,9.627,9.627,0,0,1-3.25-2.958V59.1Zm9.539-1.851a7.083,7.083,0,0,0,3.67-1,7.255,7.255,0,0,0,2.676-2.795,7.8,7.8,0,0,0-.008-7.631A7.375,7.375,0,0,0,219.074,43a6.9,6.9,0,0,0-3.611-1.012A7.326,7.326,0,0,0,211.751,43a7,7,0,0,0-2.7,2.726,7.864,7.864,0,0,0-.943,3.858,7.567,7.567,0,0,0,2.116,5.467A6.946,6.946,0,0,0,215.431,57.251Z" transform="translate(133.983 1008.002)" fill="#23354d"/>
    <path id="Op_component_8" data-name="Op component 8" d="M247.926,52.855l2.009,1.073a11.109,11.109,0,0,1-2.284,3.183,9.022,9.022,0,0,1-2.914,1.843,10.043,10.043,0,0,1-3.666.631,8.8,8.8,0,0,1-7.092-3.02,10.282,10.282,0,0,1-2.557-6.827,10.173,10.173,0,0,1,2.164-6.385,8.8,8.8,0,0,1,7.35-3.564,9.088,9.088,0,0,1,7.568,3.652,10.3,10.3,0,0,1,2.047,6.436H233.874a7.719,7.719,0,0,0,2.063,5.378,6.534,6.534,0,0,0,4.928,2.1,7.81,7.81,0,0,0,2.754-.5,7.2,7.2,0,0,0,2.277-1.328A11.23,11.23,0,0,0,247.926,52.855Zm0-5.07a8.077,8.077,0,0,0-1.389-3.1,6.591,6.591,0,0,0-2.414-1.87,7.313,7.313,0,0,0-3.154-.709,6.733,6.733,0,0,0-4.69,1.783,8.082,8.082,0,0,0-2.166,3.893Z" transform="translate(133.983 1008.002)" fill="#23354d"/>
    <path id="Op_component_9" data-name="Op component 9" d="M273.388,52.855l2.01,1.073a11.142,11.142,0,0,1-2.284,3.183,9.047,9.047,0,0,1-2.917,1.843,10.031,10.031,0,0,1-3.664.631,8.8,8.8,0,0,1-7.094-3.02,10.29,10.29,0,0,1-2.556-6.827,10.168,10.168,0,0,1,2.166-6.385,8.8,8.8,0,0,1,7.348-3.564,9.086,9.086,0,0,1,7.567,3.652,10.3,10.3,0,0,1,2.047,6.436H259.337a7.721,7.721,0,0,0,2.063,5.378,6.533,6.533,0,0,0,4.929,2.1,7.824,7.824,0,0,0,2.754-.5,7.214,7.214,0,0,0,2.276-1.328A11.249,11.249,0,0,0,273.388,52.855Zm0-5.07a8.068,8.068,0,0,0-1.389-3.1,6.6,6.6,0,0,0-2.412-1.87,7.311,7.311,0,0,0-3.155-.709,6.736,6.736,0,0,0-4.691,1.783,8.076,8.076,0,0,0-2.165,3.893Z" transform="translate(133.983 1008.002)" fill="#23354d"/>
    <path id="Op_component_1-2" data-name="Op component 1" d="M86.562,63.818A14.307,14.307,0,1,0,74.659,41.5q-.389.57-.722,1.18a14.247,14.247,0,0,0,0,13.64A14.38,14.38,0,0,0,86.562,63.818ZM77.9,42.85l6.9-4.109A3.212,3.212,0,0,1,88,38.694l7.018,3.9a3.2,3.2,0,0,1,1.645,2.746l.122,8.012a3.2,3.2,0,0,1-1.562,2.794l-6.9,4.109a3.217,3.217,0,0,1-3.208.048L78.1,56.4a3.2,3.2,0,0,1-1.645-2.746l-.121-8.011A3.2,3.2,0,0,1,77.9,42.85Z" transform="translate(133.984 1008.002)" fill="#23354d"/>
  </g>
</svg>
